<svg xmlns="http://www.w3.org/2000/svg" width="29.789" height="26.065" viewBox="0 0 29.789 26.065">
  <path id="Icon_awesome-camera" data-name="Icon awesome-camera" d="M29.789,8.766V25.523A2.793,2.793,0,0,1,27,28.315H2.793A2.793,2.793,0,0,1,0,25.523V8.766A2.793,2.793,0,0,1,2.793,5.974h5.12l.716-1.914A2.789,2.789,0,0,1,11.241,2.25h7.3a2.789,2.789,0,0,1,2.612,1.809l.721,1.914H27A2.793,2.793,0,0,1,29.789,8.766Zm-7.913,8.378a6.982,6.982,0,1,0-6.982,6.982A6.987,6.987,0,0,0,21.876,17.145Zm-1.862,0a5.12,5.12,0,1,1-5.12-5.12A5.128,5.128,0,0,1,20.015,17.145Z" transform="translate(0 -2.25)" fill="#918c8c"/>
</svg>
