<svg xmlns="http://www.w3.org/2000/svg" width="371.477" height="23" viewBox="0 0 371.477 23">
  <g id="Group_3788" data-name="Group 3788" transform="translate(-27 -103)">
    <g id="Iconly_Curved_Filter" data-name="Iconly/Curved/Filter" transform="translate(380.683 106.002)">
      <g id="Filter">
        <line id="Stroke-1" x1="6.904" transform="translate(0 14.093)" fill="none" stroke="#000" stroke-linecap="round" stroke-linejoin="round" stroke-width="1.5"/>
        <path id="Stroke-3" d="M11.2,14.065c0,2.178.726,2.9,2.9,2.9s2.9-.725,2.9-2.9-.726-2.9-2.9-2.9S11.2,11.887,11.2,14.065Z" transform="translate(0.032 0.029)" fill="none" stroke="#000" stroke-linecap="round" stroke-linejoin="round" stroke-width="1.5" fill-rule="evenodd"/>
        <line id="Stroke-5" x2="6.903" transform="translate(10.14 2.905)" fill="none" stroke="#000" stroke-linecap="round" stroke-linejoin="round" stroke-width="1.5"/>
        <path id="Stroke-7" d="M6.479,3.574c0-2.177-.726-2.9-2.9-2.9s-2.9.726-2.9,2.9.726,2.9,2.9,2.9S6.479,5.752,6.479,3.574Z" transform="translate(-0.671 -0.671)" fill="none" stroke="#000" stroke-linecap="round" stroke-linejoin="round" stroke-width="1.5" fill-rule="evenodd"/>
      </g>
    </g>
    <g id="Group_3787" data-name="Group 3787" transform="translate(27 103)">
      <g id="Group_3786" data-name="Group 3786">
        <g id="Group_3785" data-name="Group 3785">
          <g id="Group_3784" data-name="Group 3784">
            <text id="Today" transform="translate(0 17)" fill="#020202" font-size="16" font-family="Poppins-Medium, Poppins" font-weight="500"><tspan x="0" y="0">Today</tspan></text>
            <path id="Polygon_8" data-name="Polygon 8" d="M5.143,1.429a1,1,0,0,1,1.715,0l4.234,7.056A1,1,0,0,1,10.234,10H1.766A1,1,0,0,1,.909,8.486Z" transform="translate(70 18) rotate(180)" fill="#020202"/>
          </g>
        </g>
      </g>
    </g>
  </g>
</svg>
