<svg xmlns="http://www.w3.org/2000/svg" xmlns:xlink="http://www.w3.org/1999/xlink" width="43.857" height="43.857" viewBox="0 0 43.857 43.857">
  <defs>
    <filter id="Ellipse_16" x="0" y="0" width="43.857" height="43.857" filterUnits="userSpaceOnUse">
      <feOffset dy="4" input="SourceAlpha"/>
      <feGaussianBlur stdDeviation="3" result="blur"/>
      <feFlood flood-color="#656d74" flood-opacity="0.184"/>
      <feComposite operator="in" in2="blur"/>
      <feComposite in="SourceGraphic"/>
    </filter>
  </defs>
  <g id="Group_321" data-name="Group 321" transform="matrix(0.999, 0.035, -0.035, 0.999, -589.187, -445.443)">
    <g transform="matrix(1, -0.03, 0.03, 1, 604.37, 424.61)" filter="url(#Ellipse_16)">
      <circle id="Ellipse_16-2" data-name="Ellipse 16" cx="12.5" cy="12.5" r="12.5" transform="matrix(1, 0.03, -0.03, 1, 9.87, 5)" fill="#bfa780"/>
    </g>
    <g id="Group_318" data-name="Group 318" transform="translate(621.89 434.729)">
      <path id="Path_64" data-name="Path 64" d="M174.955,391.885a.574.574,0,0,1-.574-.574,3.94,3.94,0,1,0-7.879,0,.574.574,0,1,1-1.149,0,5.088,5.088,0,1,1,10.177,0A.574.574,0,0,1,174.955,391.885Z" transform="translate(-165.352 -386.222)" fill="#fff"/>
      <path id="Path_65" data-name="Path 65" d="M172.317,423.5a3.022,3.022,0,0,1-2.881-2.037l-1.615-4.569a.574.574,0,1,1,1.083-.383l1.615,4.569a1.906,1.906,0,0,0,3.595,0l1.615-4.569a.574.574,0,0,1,1.083.383l-1.615,4.569A3.021,3.021,0,0,1,172.317,423.5Z" transform="translate(-167.229 -409.254)" fill="#fff"/>
      <path id="Path_66" data-name="Path 66" d="M179.06,402.448a2.517,2.517,0,1,1,2.517-2.517A2.52,2.52,0,0,1,179.06,402.448Zm0-3.886a1.369,1.369,0,1,0,1.369,1.369A1.37,1.37,0,0,0,179.06,398.562Z" transform="translate(-173.972 -394.842)" fill="#fff"/>
    </g>
  </g>
</svg>
