<svg xmlns="http://www.w3.org/2000/svg" width="20" height="20" viewBox="0 0 20 20">
  <path id="Icon_ionic-md-share" data-name="Icon ionic-md-share" d="M21.157,17.265a3.218,3.218,0,0,0-2.173.754l-7.967-4.171a3.082,3.082,0,0,0,.112-.7,3.081,3.081,0,0,0-.112-.7l7.856-4.12a3.553,3.553,0,0,0,2.284.8A3.2,3.2,0,0,0,24.5,6.109a3.2,3.2,0,0,0-3.343-3.015,3.2,3.2,0,0,0-3.343,3.015,3.064,3.064,0,0,0,.112.7l-7.855,4.12a3.553,3.553,0,0,0-2.284-.8A3.15,3.15,0,0,0,4.5,13.144a3.2,3.2,0,0,0,3.343,3.015,3.554,3.554,0,0,0,2.284-.8l7.911,4.171a2.3,2.3,0,0,0-.112.653,3.087,3.087,0,0,0,3.231,2.914,3.087,3.087,0,0,0,3.231-2.914A3.087,3.087,0,0,0,21.157,17.265Z" transform="translate(-4.5 -3.094)" fill="#525151"/>
</svg>
