<svg xmlns="http://www.w3.org/2000/svg" width="34.196" height="24.87" viewBox="0 0 34.196 24.87">
  <path id="Icon_material-local-shipping" data-name="Icon material-local-shipping" d="M31.033,12.217H26.37V6H4.609A3.118,3.118,0,0,0,1.5,9.109v17.1H4.609a4.663,4.663,0,1,0,9.326,0h9.326a4.663,4.663,0,1,0,9.326,0H35.7V18.435ZM9.272,28.538A2.332,2.332,0,1,1,11.6,26.207,2.328,2.328,0,0,1,9.272,28.538ZM30.255,14.549,33.3,18.435H26.37V14.549ZM27.924,28.538a2.332,2.332,0,1,1,2.332-2.332A2.328,2.328,0,0,1,27.924,28.538Z" transform="translate(-1.5 -6)" fill="#8b5704"/>
</svg>
