<svg xmlns="http://www.w3.org/2000/svg" width="30" height="30" viewBox="0 0 30 30">
  <g id="buy" transform="translate(-5.61 -9.99)">
    <path id="Path_134_2_" d="M82.46,110.78h4.828l1.863,5.01,1.009,1.27h.921l2.2,5.706-17.16.343,2.46-6.05,1.359-.394Z" transform="translate(-58.295 -83.589)" fill="#f0bc5e"/>
    <g id="business-and-finance_3_" transform="translate(5.61 9.99)">
      <path id="Path_24_2_" d="M-276.229-2012.584H-284.8a1.838,1.838,0,0,1-1.838-1.838,1.838,1.838,0,0,1,1.838-1.838h8.573a1.838,1.838,0,0,1,1.838,1.838A1.838,1.838,0,0,1-276.229-2012.584Zm-8.573-2.451a.614.614,0,0,0-.613.613.613.613,0,0,0,.613.613h8.573a.614.614,0,0,0,.613-.613.614.614,0,0,0-.613-.613Z" transform="translate(291.712 2021.274)"/>
      <path id="Path_25_2_" d="M-284.621-2039.886a.61.61,0,0,1-.611-.614.612.612,0,0,1,.229-.478l3.4-2.717a.6.6,0,0,0,.2-.682.6.6,0,0,0-.578-.408h-11.389a.6.6,0,0,0-.578.408.593.593,0,0,0,.2.682l3.4,2.717a.613.613,0,0,1,.064.865.611.611,0,0,1-.828.092l-3.4-2.717a1.817,1.817,0,0,1-.588-2.044,1.818,1.818,0,0,1,1.736-1.229h11.389a1.818,1.818,0,0,1,1.734,1.229,1.816,1.816,0,0,1-.588,2.044l-3.4,2.717A.6.6,0,0,1-284.621-2039.886Z" transform="translate(298.708 2046.01)"/>
      <path id="Path_26_2_" d="M-307.815-1979.333h-1.838c-4.654,0-6.737-4-6.737-7.961,0-5.686,3-11.575,7.137-14a.621.621,0,0,1,.31-.084h7.154a.6.6,0,0,1,.31.084,13.748,13.748,0,0,1,5.126,5.764.611.611,0,0,1-.27.822.611.611,0,0,1-.822-.27h0a12.651,12.651,0,0,0-4.514-5.174h-6.814c-3.712,2.269-6.391,7.646-6.391,12.86,0,3.107,1.444,6.737,5.512,6.737h1.838a.614.614,0,0,1,.613.613.614.614,0,0,1-.613.613Z" transform="translate(316.39 2009.332)"/>
      <path id="Path_27_2_" d="M-239.039-1904.78h-9.8a.614.614,0,0,1-.613-.613.6.6,0,0,1,.044-.227l2.449-6.124a.612.612,0,0,1,.568-.385h4.9a.611.611,0,0,1,.568.384l2.45,6.124a.614.614,0,0,1-.341.8A.6.6,0,0,1-239.039-1904.78Zm-8.894-1.225h7.99l-1.96-4.9h-4.071Z" transform="translate(260.836 1934.78)"/>
      <path id="Path_28_2_" d="M-194.409-1904.763h-9.8a.614.614,0,0,1-.613-.613.613.613,0,0,1,.613-.613h8.894l-1.96-4.9h-4.071l-1.07,2.677a.613.613,0,0,1-.8.343.613.613,0,0,1-.343-.8l1.225-3.062a.607.607,0,0,1,.568-.385h4.9a.611.611,0,0,1,.568.384l2.45,6.125a.614.614,0,0,1-.341.8A.668.668,0,0,1-194.409-1904.763Z" transform="translate(223.797 1934.763)"/>
      <path id="Path_29_2_" d="M-216.719-1941.97h-9.8a.614.614,0,0,1-.613-.613.6.6,0,0,1,.044-.227l2.449-6.124a.612.612,0,0,1,.568-.385h4.9a.61.61,0,0,1,.568.384l2.45,6.124a.614.614,0,0,1-.341.8A.6.6,0,0,1-216.719-1941.97Zm-8.9-1.225h7.99l-1.96-4.9h-4.071Z" transform="translate(242.433 1965.678)"/>
    </g>
  </g>
</svg>
