<svg xmlns="http://www.w3.org/2000/svg" width="38.998" height="27.298" viewBox="0 0 38.998 27.298">
  <path id="Icon_awesome-truck-pickup" data-name="Icon awesome-truck-pickup" d="M38.023,17.849h-.975v-3.9A1.95,1.95,0,0,0,35.1,12H32.173L25.545,3.714A3.9,3.9,0,0,0,22.5,2.25H15.6a1.95,1.95,0,0,0-1.95,1.95V12H3.9a1.95,1.95,0,0,0-1.95,1.95v3.9H.975A.975.975,0,0,0,0,18.824v1.95a.975.975,0,0,0,.975.975H4a6.812,6.812,0,1,0,13.551.975,6.766,6.766,0,0,0-.1-.975h4.1a6.827,6.827,0,1,0,13.453,0h3.022A.975.975,0,0,0,39,20.774v-1.95A.975.975,0,0,0,38.023,17.849ZM17.549,6.15H22.5L27.179,12h-9.63Zm-6.825,19.5a2.925,2.925,0,1,1,2.925-2.925A2.928,2.928,0,0,1,10.724,25.649Zm17.549,0A2.925,2.925,0,1,1,31.2,22.724,2.928,2.928,0,0,1,28.273,25.649Z" transform="translate(0 -2.25)" fill="#8b5704"/>
</svg>
