<svg xmlns="http://www.w3.org/2000/svg" width="22.205" height="25.906" viewBox="0 0 22.205 25.906">
  <path id="Icon_metro-language" data-name="Icon metro-language" d="M14.224,17.787q-.014.043-.181-.007t-.455-.166l-.289-.13a8.662,8.662,0,0,1-1.258-.708q-.1-.072-.593-.455t-.549-.412a24.628,24.628,0,0,1-1.937,2.617,10.747,10.747,0,0,1-1.518,1.59,1.146,1.146,0,0,1-.282.058.557.557,0,0,1-.267,0q.087-.058,1.185-1.33.3-.347,1.236-1.662a20.212,20.212,0,0,0,1.135-1.706q.246-.434.737-1.424a11.268,11.268,0,0,0,.52-1.12,11.88,11.88,0,0,0-1.59.477q-.116.029-.4.108t-.5.137a2.478,2.478,0,0,0-.246.072.246.246,0,0,0-.029.152.321.321,0,0,1-.014.137q-.072.145-.448.217a1.166,1.166,0,0,1-.679,0,.61.61,0,0,1-.4-.3.735.735,0,0,1-.072-.332,2.794,2.794,0,0,1,.354-.072,4.317,4.317,0,0,0,.426-.087q.838-.231,1.518-.463,1.446-.506,1.475-.506a3.207,3.207,0,0,0,.622-.282,6.539,6.539,0,0,1,.636-.311q.13-.043.311-.116t.21-.08a.194.194,0,0,1,.087.007,1.645,1.645,0,0,1-.014.477,3.078,3.078,0,0,1-.181.39q-.181.361-.383.773t-.246.484a21.682,21.682,0,0,1-1.113,1.894l.925.4q.173.087,1.077.463l.976.4q.058.014.152.369a1.1,1.1,0,0,1,.065.441Zm-2.964-7.026a.586.586,0,0,1-.058.4,1.31,1.31,0,0,1-.723.549,2.321,2.321,0,0,1-.867.173,1.2,1.2,0,0,1-.708-.376,1.087,1.087,0,0,1-.26-.593l.014-.043a.619.619,0,0,0,.282.072,1.257,1.257,0,0,0,.383,0q.145-.029.838-.231a4.127,4.127,0,0,1,.8-.2.285.285,0,0,1,.3.246Zm10.091,1.865.911,3.282L20.253,15.3ZM5.334,24.192l10.033-3.354V5.919L5.334,9.287v14.9Zm17.94-4.583,1.475.448-2.617-9.5-1.446-.448L17.564,17.86l1.475.448.651-1.59,3.05.94ZM16,5.7l8.284,2.66V2.868Zm4.5,19.126,2.284.188L22,27.329l-.578-.954a10.717,10.717,0,0,1-3.99,1.561,6.929,6.929,0,0,1-1.316.173H14.9a9.771,9.771,0,0,1-2.884-.564,9.6,9.6,0,0,1-2.653-1.229.3.3,0,0,1-.116-.231.28.28,0,0,1,.072-.2.242.242,0,0,1,.188-.08.814.814,0,0,1,.26.108l.441.239q.239.13.3.159a12.809,12.809,0,0,0,2.306.889,8.424,8.424,0,0,0,2.277.354,12.336,12.336,0,0,0,2.414-.21,11.915,11.915,0,0,0,2.27-.73q.217-.1.441-.224t.492-.275q.267-.152.412-.239Zm6.476-15.6v15.6L15.786,21.271q-.2.087-5.421,1.843t-5.32,1.756a.261.261,0,0,1-.26-.188.111.111,0,0,0-.014-.043V9.056a.645.645,0,0,1,.058-.145.65.65,0,0,1,.289-.159q1.532-.506,2.154-.723V2.478L15.337,5.34q.029,0,2.32-.8t4.568-1.569Q24.5,2.2,24.561,2.2q.289,0,.289.3V8.55Z" transform="translate(-4.77 -2.203)" fill="#8b5704"/>
</svg>
