<svg xmlns="http://www.w3.org/2000/svg" width="21.868" height="23.22" viewBox="0 0 21.868 23.22">
  <g id="Iconly_Two-tone_Setting" data-name="Iconly/Two-tone/Setting" transform="translate(-2.388 -1.528)">
    <g id="Setting" transform="translate(3.279 2.278)">
      <path id="Path_33946" d="M20.584,6.818l-.7-1.22a2.162,2.162,0,0,0-2.948-.8h0a2.151,2.151,0,0,1-2.948-.765A2.069,2.069,0,0,1,13.7,3h0A2.162,2.162,0,0,0,11.534.778H10.118A2.151,2.151,0,0,0,7.966,2.94h0A2.162,2.162,0,0,1,5.8,5.07a2.069,2.069,0,0,1-1.034-.29h0a2.162,2.162,0,0,0-2.948.8L1.068,6.818a2.162,2.162,0,0,0,.786,2.948h0a2.162,2.162,0,0,1,0,3.744h0a2.151,2.151,0,0,0-.786,2.937h0l.714,1.231a2.162,2.162,0,0,0,2.948.838h0a2.141,2.141,0,0,1,2.937.786,2.069,2.069,0,0,1,.29,1.034h0A2.162,2.162,0,0,0,10.118,22.5h1.417A2.162,2.162,0,0,0,13.7,20.347h0a2.151,2.151,0,0,1,2.162-2.162,2.2,2.2,0,0,1,1.034.29h0a2.162,2.162,0,0,0,2.948-.786h0l.745-1.241A2.151,2.151,0,0,0,19.8,13.5h0a2.151,2.151,0,0,1-.786-2.948,2.12,2.12,0,0,1,.786-.786h0a2.162,2.162,0,0,0,.786-2.937h0Z" transform="translate(-0.779 -0.778)" fill="none" stroke="#000" stroke-linecap="round" stroke-linejoin="round" stroke-width="1.5" fill-rule="evenodd"/>
      <circle id="Ellipse_737" cx="2.979" cy="2.979" r="2.979" transform="translate(7.074 7.881)" fill="none" stroke="#000" stroke-linecap="round" stroke-linejoin="round" stroke-width="1.5" opacity="0.4"/>
    </g>
  </g>
</svg>
